<?xml version="1.0" encoding="utf-8"?>
<!-- Generator: Adobe Illustrator 18.0.0, SVG Export Plug-In . SVG Version: 6.00 Build 0)  -->
<!DOCTYPE svg PUBLIC "-//W3C//DTD SVG 1.1//EN" "http://www.w3.org/Graphics/SVG/1.1/DTD/svg11.dtd">
<svg version="1.1" id="Layer_1" xmlns="http://www.w3.org/2000/svg" xmlns:xlink="http://www.w3.org/1999/xlink" x="0px" y="0px"
	 viewBox="0 0 500 300" enable-background="new 0 0 500 300" xml:space="preserve">
<g>
	<g>
		<polygon fill="#FFFFFF" points="463.4,88.7 468.4,83.7 280.2,83.7 275.7,88.7 		"/>
	</g>
	<g>
		<polygon fill="#FFFFFF" points="168.9,83.8 168.7,83.8 168.6,83.8 38.9,236.6 57.2,84.1 28.7,84.1 24.2,88.9 51.8,88.9 
			33.6,243.5 38.3,243.5 170.9,88.7 171,88.6 259,88.6 264.1,83.8 		"/>
		<g>
			<path fill="#FFFFFF" d="M463.9,197.7l-1.2,1.5c-23.7,27-39.9,40.8-49.5,40.8c-1.8,0-2.7-0.9-3.6-2.1c-2.1-4.5,0.9-16.5,16.8-36
				l12-15.9c5.4-7.2,9-13.8,9-18.3c0-4.8-3.9-9.9-11.1-9.9c-16.5,0-44.1,20.4-60.5,42.6c-21,24.6-40.8,39.9-50.1,39.9
				c-3,0-5.4-0.9-5.4-6.3c0-18.6,35.7-59.6,45-68.3l1.2-1.2l-3.6-5.4l-2.1,2.1c0,0-1.8,1.8-3.6,1.8c-1.2,0-3.9-0.3-5.7-3.9
				c-2.1-3.6-3.9-9-0.9-15.9l3.6-6.6l-2.6-1l-1.9-1.2c-0.4,0.7-43.8,72-86.6,99.2c-7.1,4-13.2,6.3-17.2,6.7c-3.8,0.4-7.7-1.1-7.7-5
				c0-7.5,4.8-17.8,15-33.7c10.8-15.9,26.7-37.8,48-65.6l34.2-1.8l3.9-4.5l-34.2,1.8c7.5-9.9,15.9-20.4,24.6-32.1
				c2.1-2.4,4.3-4.9,6.4-7.7h-6.1c-10.3,13.4-20.3,26.6-30.6,39.8l-26.1,1.2l-4.5,4.8l27-1.2c-21,27-35.7,47.1-45.9,62.9
				c-22.8,26.7-41.7,40.5-55.1,40.5c-6.6,0-9.3-3.6-9.3-10.8c0-6.6,2.7-15.6,7.5-26.7c35.4-33,77.4-79,101-110.4l-6,0
				c-19.8,26-53.3,64.8-89.7,99.2c18.3-34.8,50.7-78.6,75.6-105.6l4.5-4.8c12.9-13.8,23.1-22.2,27-22.2c1.2,0,1.2,0,1.2,1.8
				c0,3-2.7,9-8.1,16.5l0,0l-2.8,4h5.6l2.8-4.3l0,0c4.5-7.2,7.2-12.9,7.2-15.9c0-4.8-3.6-6.6-6.3-6.6c-5.7,0-18.3,10.8-32.4,25.8
				l-4.8,5.4c-10.8,12-22.2,25.8-33,39.9c-8.7,12.6-33,46.5-45.9,75.2c-16.8,19.5-34.8,31.5-48,31.5c-0.9,0-1.8,0-2.1,0
				c19.8-18.3,40.8-48.3,40.8-66.5c0-7.2-4.5-10.2-8.4-10.8c-0.3,0-0.9,0-1.2,0c-1.8,0-3.6,0.3-5.4,0.9c-5.4,1.2-11.1,4.8-16.8,9.9
				c-11.7,9-22.2,21.3-28.5,28.8c-12,13.2-20.1,29.4-20.1,39.9c0,7.5,4.5,12.6,11.1,12.6c6.3,0,14.1-3.9,24-11.7
				c2.1,0.9,4.5,0.9,6.6,0.9c12.6,0,27.9-9,43.5-24c-2.1,6.3-3.6,12-3.6,16.8c0,9.9,5.4,15.6,14.1,15.6c12,0,26.7-9,44.1-26.1
				c-3.6,7.2-5.4,12.9-5.4,17.7c0,6.3,4.2,8.6,10.2,9c5,0.3,11.8-1.1,21.4-7l0,0c1.4-0.9,2.8-1.8,4.1-2.8c0.6-0.4,1.3-0.9,1.9-1.4
				c12.6-9.1,26.1-22.2,40.4-39c2.5-2.8,5-5.8,7.6-8.9l25.8-34.2c0,3,1.8,9,3.6,11.1c2.1,2.7,4.5,4.5,8.4,4.5
				c-9.9,11.1-41.4,47.1-41.4,66.5c0,6.6,3.6,11.1,9.9,11.1c9,0,23.7-9.9,39.6-26.1c-1.8,4.8-2.7,9.3-2.7,13.2
				c0,7.2,3.9,12.6,9.9,12.6c9,0,20.4-7.2,35.1-21.3c-3,7.5-3.6,13.8-1.2,17.7c1.2,2.1,3.9,3.6,7.2,3.6c11.1,0,28.8-14.1,53.4-42.6
				l0.9-0.9L463.9,197.7z M109.6,241.7c-2.7,0-6.3-0.9-6.3-7.5c0-10.8,8.4-26.1,21-38.7c-2.1,5.7-3.6,11.1-3.6,16.5
				c0,9.9,3,16.8,8.4,21C121.6,238.7,114.7,241.7,109.6,241.7z M133.6,229.4c-4.8-2.7-7.5-9-7.5-17.4c0-24,29.7-52.8,44.1-52.8
				c2.1,0,4.8,0.9,4.8,5.7C174.6,181.8,153.1,212.9,133.6,229.4z M373.1,239.9c-3.6,0-5.4-2.7-5.4-7.5c0-24,45-69.8,68.9-69.8
				c3.9,0,6.3,1.8,6.3,4.8c0,3-2.7,10.2-9.3,17.4l-10.2,13.8C400.9,226.1,384.2,239.9,373.1,239.9z"/>
		</g>
	</g>
</g>
</svg>
