<?xml version="1.0" encoding="utf-8"?>
<!-- Generator: Adobe Illustrator 21.0.2, SVG Export Plug-In . SVG Version: 6.00 Build 0)  -->
<svg version="1.1" id="Layer_1" xmlns="http://www.w3.org/2000/svg" xmlns:xlink="http://www.w3.org/1999/xlink" x="0px" y="0px"
	 viewBox="0 0 100 100" style="enable-background:new 0 0 100 100;" xml:space="preserve">
<style type="text/css">
	.st0{fill:#FFFFFF;}
</style>
<g>
	<path class="st0" d="M85.2,48.3H18.7l22.1-22.1c0.7-0.7,0.7-1.8,0-2.5s-1.8-0.7-2.5,0L13.2,48.8l0,0C13.1,48.9,13.1,49,13,49
		l-0.1,0.1c0,0.1-0.1,0.1-0.1,0.2c0,0.1,0,0.1-0.1,0.2v0.1c0,0.2,0,0.5,0,0.7c0,0.1,0,0.1,0,0.1c0,0.1,0,0.1,0.1,0.2
		c0,0.1,0.1,0.1,0.1,0.2c0,0,0,0.1,0.1,0.1c0.1,0.1,0.1,0.2,0.2,0.2l0,0l25.1,25.1c0.3,0.3,0.8,0.5,1.2,0.5s0.9-0.2,1.2-0.5
		c0.7-0.7,0.7-1.8,0-2.5l-22-21.9h66.5c1,0,1.8-0.8,1.8-1.8S86.1,48.3,85.2,48.3z"/>
</g>
</svg>
