<?xml version="1.0" encoding="utf-8"?>
<!-- Generator: Adobe Illustrator 21.0.0, SVG Export Plug-In . SVG Version: 6.00 Build 0)  -->
<svg version="1.1" id="Layer_1" xmlns="http://www.w3.org/2000/svg" xmlns:xlink="http://www.w3.org/1999/xlink" x="0px" y="0px"
	 viewBox="0 0 140 140" style="enable-background:new 0 0 140 140;" xml:space="preserve">
<style type="text/css">
	.st0{fill:#FFFFFF;}
</style>
<g>
	<path class="st0" d="M83.8,59.4h-3.4l-0.3-1.4c-0.4-1.7-2-2.9-3.7-2.9H63.6c-1.7,0-3.3,1.2-3.7,3l-0.4,1.4h-3.5
		c-2.6,0-4.6,2.1-4.6,4.6v17.8c0,2.5,2,4.6,4.6,4.6h27.9c2.5,0,4.6-2,4.6-4.6V64C88.4,61.5,86.4,59.4,83.8,59.4z M63.6,56.8h12.9
		c0.8,0,2,0.7,2.2,1.6l0.5,2c0,0.5,0.3,0.7,0.6,0.7h4.1c1.6,0,2.8,1.2,2.8,2.8v17.8c0,1.6-1.2,2.8-2.8,2.8H56.1
		c-1.6,0-2.8-1.2-2.8-2.8V64c0-1.6,1.2-2.8,2.8-2.8h4.2c0.4,0,0.6-0.3,0.7-0.6l0.4-2C61.6,57.7,62.7,56.8,63.6,56.8z"/>
	<path class="st0" d="M69.9,80.3c4.3,0,7.9-3.6,7.9-7.9c0-4.3-3.4-7.8-7.9-7.8s-7.9,3.6-7.9,7.9S65.7,80.3,69.9,80.3z M69.9,66.3
		c3.4,0,6.3,2.8,6.3,6.3s-2.8,6.3-6.3,6.3s-6.3-2.8-6.3-6.3S66.5,66.3,69.9,66.3z"/>
</g>
</svg>
