<?xml version="1.0" encoding="utf-8"?>
<!-- Generator: Adobe Illustrator 21.1.0, SVG Export Plug-In . SVG Version: 6.00 Build 0)  -->
<svg version="1.1" id="Layer_1" xmlns="http://www.w3.org/2000/svg" xmlns:xlink="http://www.w3.org/1999/xlink" x="0px" y="0px"
	 viewBox="0 0 150 150" style="enable-background:new 0 0 150 150;" xml:space="preserve">
<style type="text/css">
	.st0{fill:#555555;}
</style>
<g>
	<path class="st0" d="M124.6,66.2c-0.1,0-0.3-0.2-0.3-0.3C124,44.1,106.4,26.4,85,26.4c-13.2,0-26.4,7.1-33.7,18.1
		c-0.1,0.1-0.1,0.1-0.2,0.1c-0.1,0-0.2,0-0.2,0c-3.2-2.1-7-3.3-10.8-3.3c-10.8,0-19.6,8.8-19.6,19.6c0,0.2,0,0.5,0,0.7V62v0.3
		c0,0.4,0,0.8,0,1.1c0,0.1-0.1,0.2-0.2,0.3C10.3,68.4,3,80,3,91.1c0,16.1,13.1,29.2,29.2,29.2h61c0.2,0,0.3,0,0.5,0h0.4h0.6
		c0.2,0,0.4,0,0.5,0h24.4c15,0,27.1-12.2,27.1-27.1C146.7,80.1,137.2,68.5,124.6,66.2z"/>
</g>
</svg>
