<?xml version="1.0" encoding="utf-8"?>
<!-- Generator: Adobe Illustrator 20.1.0, SVG Export Plug-In . SVG Version: 6.00 Build 0)  -->
<svg version="1.1" id="Layer_1" xmlns="http://www.w3.org/2000/svg" xmlns:xlink="http://www.w3.org/1999/xlink" x="0px" y="0px"
	 viewBox="0 0 150 150" style="enable-background:new 0 0 150 150;" xml:space="preserve">
<style type="text/css">
	.st0{fill:#FFFFFF;}
</style>
<path class="st0" d="M75,0C33.8,0,0,33.8,0,75s33.8,75,75,75s75-33.8,75-75S116.2,0,75,0z M51.7,76.4c0,7.2-5.7,12.9-12.9,12.9
	c-7.5,0-12.9-5.4-12.9-12.9c0-6.9,5.9-12.9,12.9-12.9S51.7,69.4,51.7,76.4z M88.7,76.4c0,7.2-5.7,12.9-12.9,12.9
	c-6.9,0-12.9-5.9-12.9-12.9s5.9-12.9,12.9-12.9C82.9,63.6,88.7,69.4,88.7,76.4z M125.8,76.4c0,7.2-5.7,12.9-12.9,12.9
	c-6.9,0-12.9-5.9-12.9-12.9s6-12.9,13-12.9C119.9,63.6,125.8,69.4,125.8,76.4z"/>
</svg>
